<svg xmlns="http://www.w3.org/2000/svg" width="400" height="780" viewBox="0 0 400 780">
  <defs>
    <clipPath id="phoneClip"><rect x="24" y="12" width="352" height="756" rx="36"/></clipPath>
    <style>
      text { font-family: 'Segoe UI', system-ui, -apple-system, sans-serif; }
    </style>
  </defs>

  <!-- Phone Frame -->
  <rect x="16" y="4" width="368" height="772" rx="40" fill="#1A1A2E" stroke="#333355" stroke-width="2"/>
  <rect x="24" y="12" width="352" height="756" rx="36" fill="#0D1117"/>

  <g clip-path="url(#phoneClip)">
    <!-- Status Bar -->
    <rect x="24" y="12" width="352" height="44" fill="#0D1117"/>
    <text x="52" y="38" fill="#E2E8F0" font-size="12" font-weight="600">9:41</text>
    <!-- Signal/Battery icons -->
    <rect x="310" y="28" width="22" height="10" rx="2" fill="none" stroke="#E2E8F0" stroke-width="1"/>
    <rect x="312" y="30" width="16" height="6" rx="1" fill="#22C55E"/>
    <rect x="332" y="31" width="2" height="4" rx="1" fill="#E2E8F0"/>
    <!-- Notch/Dynamic Island -->
    <rect x="152" y="16" width="96" height="24" rx="12" fill="#000"/>

    <!-- Header -->
    <rect x="24" y="56" width="352" height="56" fill="#0D1117"/>
    <!-- Menu icon -->
    <rect x="48" y="76" width="20" height="2" rx="1" fill="#E2E8F0"/>
    <rect x="48" y="82" width="14" height="2" rx="1" fill="#E2E8F0"/>
    <rect x="48" y="88" width="20" height="2" rx="1" fill="#E2E8F0"/>
    <text x="200" y="89" fill="#E2E8F0" font-size="18" font-weight="700" text-anchor="middle">HSEQ</text>
    <!-- Bell icon -->
    <circle cx="340" cy="82" r="10" fill="#1B4332" opacity="0.5"/>
    <path d="M336 84 v-4 a4 4 0 0 1 8 0 v4" fill="none" stroke="#22C55E" stroke-width="1.5" stroke-linecap="round"/>
    <line x1="334" y1="84" x2="346" y2="84" stroke="#22C55E" stroke-width="1.5" stroke-linecap="round"/>
    <circle cx="343" cy="78" r="3" fill="#EF4444"/>

    <!-- Welcome text -->
    <text x="48" y="136" fill="#94A3B8" font-size="13">Good morning,</text>
    <text x="48" y="158" fill="#F1F5F9" font-size="20" font-weight="700">Welcome back</text>

    <!-- Stat Cards Row 1 -->
    <!-- Incidents -->
    <rect x="40" y="178" width="152" height="100" rx="14" fill="#1B1B30" stroke="#2D2D50" stroke-width="1"/>
    <rect x="54" y="194" width="34" height="34" rx="10" fill="#7F1D1D" opacity="0.6"/>
    <text x="71" y="217" fill="#FCA5A5" font-size="16" text-anchor="middle">!</text>
    <text x="54" y="248" fill="#94A3B8" font-size="11" font-weight="500">Incidents</text>
    <text x="54" y="268" fill="#F1F5F9" font-size="24" font-weight="700">11</text>
    <text x="88" y="268" fill="#EF4444" font-size="10">+2 new</text>

    <!-- Audits -->
    <rect x="208" y="178" width="152" height="100" rx="14" fill="#1B1B30" stroke="#2D2D50" stroke-width="1"/>
    <rect x="222" y="194" width="34" height="34" rx="10" fill="#14532D" opacity="0.6"/>
    <text x="239" y="216" fill="#86EFAC" font-size="14" text-anchor="middle">&#10003;</text>
    <text x="222" y="248" fill="#94A3B8" font-size="11" font-weight="500">Audits</text>
    <text x="222" y="268" fill="#F1F5F9" font-size="24" font-weight="700">39</text>
    <text x="260" y="268" fill="#22C55E" font-size="10">5 pending</text>

    <!-- Stat Cards Row 2 -->
    <!-- Tasks -->
    <rect x="40" y="290" width="152" height="100" rx="14" fill="#1B1B30" stroke="#2D2D50" stroke-width="1"/>
    <rect x="54" y="306" width="34" height="34" rx="10" fill="#1E3A5F" opacity="0.6"/>
    <rect x="63" y="316" width="16" height="12" rx="2" fill="none" stroke="#60A5FA" stroke-width="1.5"/>
    <path d="M66 322 l4 3 l6 -6" fill="none" stroke="#60A5FA" stroke-width="1.3" stroke-linecap="round" stroke-linejoin="round"/>
    <text x="54" y="360" fill="#94A3B8" font-size="11" font-weight="500">Tasks</text>
    <text x="54" y="380" fill="#F1F5F9" font-size="24" font-weight="700">21</text>
    <text x="88" y="380" fill="#60A5FA" font-size="10">8 due today</text>

    <!-- Compliance -->
    <rect x="208" y="290" width="152" height="100" rx="14" fill="#1B1B30" stroke="#2D2D50" stroke-width="1"/>
    <rect x="222" y="306" width="34" height="34" rx="10" fill="#4C1D95" opacity="0.4"/>
    <circle cx="239" cy="323" r="10" fill="none" stroke="#A78BFA" stroke-width="2"/>
    <path d="M239 313 a10 10 0 1 1 -7 17" fill="none" stroke="#A78BFA" stroke-width="2" stroke-linecap="round"/>
    <text x="222" y="360" fill="#94A3B8" font-size="11" font-weight="500">Compliance</text>
    <text x="222" y="380" fill="#F1F5F9" font-size="24" font-weight="700">94%</text>

    <!-- Bar Chart Section -->
    <rect x="40" y="406" width="320" height="200" rx="14" fill="#1B1B30" stroke="#2D2D50" stroke-width="1"/>
    <text x="58" y="434" fill="#E2E8F0" font-size="13" font-weight="600">Weekly Overview</text>
    <text x="306" y="434" fill="#64748B" font-size="10">This Week</text>

    <!-- Y axis labels -->
    <text x="58" y="466" fill="#475569" font-size="9">20</text>
    <text x="58" y="498" fill="#475569" font-size="9">15</text>
    <text x="58" y="530" fill="#475569" font-size="9">10</text>
    <text x="62" y="562" fill="#475569" font-size="9">5</text>
    <text x="62" y="590" fill="#475569" font-size="9">0</text>
    <!-- Grid lines -->
    <line x1="78" y1="462" x2="340" y2="462" stroke="#2D2D50" stroke-width="0.5"/>
    <line x1="78" y1="494" x2="340" y2="494" stroke="#2D2D50" stroke-width="0.5"/>
    <line x1="78" y1="526" x2="340" y2="526" stroke="#2D2D50" stroke-width="0.5"/>
    <line x1="78" y1="558" x2="340" y2="558" stroke="#2D2D50" stroke-width="0.5"/>
    <line x1="78" y1="588" x2="340" y2="588" stroke="#2D2D50" stroke-width="0.5"/>

    <!-- Bars - Mon -->
    <rect x="90" y="510" width="14" height="78" rx="3" fill="#22C55E" opacity="0.8"/>
    <rect x="108" y="542" width="14" height="46" rx="3" fill="#3B82F6" opacity="0.7"/>
    <text x="104" y="600" fill="#64748B" font-size="9" text-anchor="middle">Mon</text>

    <!-- Bars - Tue -->
    <rect x="140" y="526" width="14" height="62" rx="3" fill="#22C55E" opacity="0.8"/>
    <rect x="158" y="558" width="14" height="30" rx="3" fill="#3B82F6" opacity="0.7"/>
    <text x="154" y="600" fill="#64748B" font-size="9" text-anchor="middle">Tue</text>

    <!-- Bars - Wed -->
    <rect x="190" y="494" width="14" height="94" rx="3" fill="#22C55E" opacity="0.8"/>
    <rect x="208" y="530" width="14" height="58" rx="3" fill="#3B82F6" opacity="0.7"/>
    <text x="204" y="600" fill="#64748B" font-size="9" text-anchor="middle">Wed</text>

    <!-- Bars - Thu -->
    <rect x="240" y="540" width="14" height="48" rx="3" fill="#22C55E" opacity="0.8"/>
    <rect x="258" y="562" width="14" height="26" rx="3" fill="#3B82F6" opacity="0.7"/>
    <text x="254" y="600" fill="#64748B" font-size="9" text-anchor="middle">Thu</text>

    <!-- Bars - Fri -->
    <rect x="290" y="518" width="14" height="70" rx="3" fill="#22C55E" opacity="0.8"/>
    <rect x="308" y="548" width="14" height="40" rx="3" fill="#3B82F6" opacity="0.7"/>
    <text x="304" y="600" fill="#64748B" font-size="9" text-anchor="middle">Fri</text>

    <!-- Legend -->
    <rect x="200" y="424" width="8" height="8" rx="2" fill="#22C55E"/>
    <text x="212" y="432" fill="#94A3B8" font-size="9">Completed</text>
    <rect x="262" y="424" width="8" height="8" rx="2" fill="#3B82F6"/>
    <text x="274" y="432" fill="#94A3B8" font-size="9">Pending</text>

    <!-- Recent Activity -->
    <text x="48" y="634" fill="#E2E8F0" font-size="13" font-weight="600">Recent Activity</text>
    <text x="320" y="634" fill="#22C55E" font-size="11">View all</text>

    <rect x="40" y="646" width="320" height="52" rx="10" fill="#1B1B30" stroke="#2D2D50" stroke-width="0.5"/>
    <circle cx="62" cy="672" r="14" fill="#14532D" opacity="0.6"/>
    <text x="62" y="677" fill="#86EFAC" font-size="12" text-anchor="middle">&#10003;</text>
    <text x="84" y="667" fill="#E2E8F0" font-size="12" font-weight="500">Safety audit completed</text>
    <text x="84" y="683" fill="#64748B" font-size="10">Warehouse B - 2 hrs ago</text>

    <!-- Bottom Navigation -->
    <rect x="24" y="714" width="352" height="54" fill="#0D1117" stroke="#1E293B" stroke-width="1"/>

    <!-- Home (active) -->
    <g transform="translate(68, 724)">
      <rect x="-6" y="0" width="30" height="4" rx="2" fill="#22C55E" opacity="0"/>
      <rect x="3" y="2" width="12" height="10" rx="1" fill="none" stroke="#22C55E" stroke-width="1.5"/>
      <path d="M0 12 L9 4 L18 12" fill="none" stroke="#22C55E" stroke-width="1.5" stroke-linecap="round" stroke-linejoin="round"/>
      <text x="9" y="30" fill="#22C55E" font-size="9" font-weight="600" text-anchor="middle">Home</text>
    </g>

    <!-- Incidents -->
    <g transform="translate(148, 724)" opacity="0.5">
      <circle cx="9" cy="10" r="8" fill="none" stroke="#94A3B8" stroke-width="1.5"/>
      <text x="9" y="14" fill="#94A3B8" font-size="10" text-anchor="middle">!</text>
      <text x="9" y="30" fill="#94A3B8" font-size="9" text-anchor="middle">Incidents</text>
    </g>

    <!-- Tasks -->
    <g transform="translate(228, 724)" opacity="0.5">
      <rect x="1" y="3" width="14" height="14" rx="3" fill="none" stroke="#94A3B8" stroke-width="1.5"/>
      <path d="M4 10 l3 3 l5 -6" fill="none" stroke="#94A3B8" stroke-width="1.3" stroke-linecap="round"/>
      <text x="9" y="30" fill="#94A3B8" font-size="9" text-anchor="middle">Tasks</text>
    </g>

    <!-- Profile -->
    <g transform="translate(308, 724)" opacity="0.5">
      <circle cx="9" cy="7" r="5" fill="none" stroke="#94A3B8" stroke-width="1.5"/>
      <path d="M0 18 a9 7 0 0 1 18 0" fill="none" stroke="#94A3B8" stroke-width="1.5"/>
      <text x="9" y="30" fill="#94A3B8" font-size="9" text-anchor="middle">Profile</text>
    </g>
  </g>
</svg>