<svg xmlns="http://www.w3.org/2000/svg" width="960" height="600" viewBox="0 0 960 600">
  <defs>
    <filter id="shadow1" x="-4%" y="-4%" width="108%" height="112%">
      <feDropShadow dx="0" dy="2" stdDeviation="4" flood-color="#000" flood-opacity="0.08"/>
    </filter>
    <filter id="shadow2" x="-4%" y="-4%" width="108%" height="112%">
      <feDropShadow dx="0" dy="4" stdDeviation="8" flood-color="#000" flood-opacity="0.1"/>
    </filter>
    <linearGradient id="sidebarGrad" x1="0" y1="0" x2="0" y2="1">
      <stop offset="0%" stop-color="#8B5CF6"/>
      <stop offset="100%" stop-color="#7C3AED"/>
    </linearGradient>
    <linearGradient id="card1" x1="0" y1="0" x2="1" y2="1">
      <stop offset="0%" stop-color="#8B5CF6"/>
      <stop offset="100%" stop-color="#A78BFA"/>
    </linearGradient>
    <linearGradient id="card2" x1="0" y1="0" x2="1" y2="1">
      <stop offset="0%" stop-color="#F59E0B"/>
      <stop offset="100%" stop-color="#FBBF24"/>
    </linearGradient>
    <linearGradient id="card3" x1="0" y1="0" x2="1" y2="1">
      <stop offset="0%" stop-color="#EC4899"/>
      <stop offset="100%" stop-color="#F472B6"/>
    </linearGradient>
    <linearGradient id="card4" x1="0" y1="0" x2="1" y2="1">
      <stop offset="0%" stop-color="#10B981"/>
      <stop offset="100%" stop-color="#34D399"/>
    </linearGradient>
    <linearGradient id="book1bg" x1="0" y1="0" x2="1" y2="1">
      <stop offset="0%" stop-color="#6EE7B7"/>
      <stop offset="100%" stop-color="#34D399"/>
    </linearGradient>
    <linearGradient id="book2bg" x1="0" y1="0" x2="1" y2="1">
      <stop offset="0%" stop-color="#93C5FD"/>
      <stop offset="100%" stop-color="#60A5FA"/>
    </linearGradient>
    <linearGradient id="book3bg" x1="0" y1="0" x2="1" y2="1">
      <stop offset="0%" stop-color="#FCA5A5"/>
      <stop offset="100%" stop-color="#F87171"/>
    </linearGradient>
  </defs>

  <!-- Background -->
  <rect width="960" height="600" fill="#F5F3FF" rx="12"/>

  <!-- Sidebar -->
  <rect width="200" height="600" fill="url(#sidebarGrad)" rx="12"/>
  <rect x="200" y="0" width="12" height="600" fill="url(#sidebarGrad)"/>

  <!-- Sidebar Logo -->
  <text x="100" y="42" text-anchor="middle" fill="#fff" font-family="system-ui, sans-serif" font-size="18" font-weight="700">Little Author</text>
  <text x="100" y="58" text-anchor="middle" fill="#DDD6FE" font-family="system-ui, sans-serif" font-size="10">AI Storybook App</text>
  <line x1="24" y1="70" x2="176" y2="70" stroke="#A78BFA" stroke-width="1"/>

  <!-- Sidebar Nav Items -->
  <!-- Home (active) -->
  <rect x="12" y="84" width="176" height="40" rx="12" fill="rgba(255,255,255,0.2)"/>
  <circle cx="40" cy="104" r="9" fill="none" stroke="#fff" stroke-width="1.5"/>
  <rect x="36" y="100" width="8" height="5" rx="1" fill="none" stroke="#fff" stroke-width="1.5"/>
  <text x="60" y="109" fill="#fff" font-family="system-ui, sans-serif" font-size="14" font-weight="600">Home</text>

  <!-- My Stories -->
  <rect x="36" y="142" width="10" height="12" rx="2" fill="none" stroke="#DDD6FE" stroke-width="1.5"/>
  <rect x="34" y="144" width="10" height="12" rx="2" fill="none" stroke="#DDD6FE" stroke-width="1.5"/>
  <text x="60" y="155" fill="#DDD6FE" font-family="system-ui, sans-serif" font-size="13">My Stories</text>

  <!-- Create Story -->
  <circle cx="40" cy="180" r="8" fill="none" stroke="#DDD6FE" stroke-width="1.5"/>
  <line x1="40" y1="175" x2="40" y2="185" stroke="#DDD6FE" stroke-width="1.5"/>
  <line x1="35" y1="180" x2="45" y2="180" stroke="#DDD6FE" stroke-width="1.5"/>
  <text x="60" y="185" fill="#DDD6FE" font-family="system-ui, sans-serif" font-size="13">Create Story</text>

  <!-- Characters -->
  <circle cx="40" cy="214" r="5" fill="none" stroke="#DDD6FE" stroke-width="1.5"/>
  <path d="M30,226 Q40,220 50,226" fill="none" stroke="#DDD6FE" stroke-width="1.5"/>
  <text x="60" y="220" fill="#DDD6FE" font-family="system-ui, sans-serif" font-size="13">Characters</text>

  <!-- Progress -->
  <rect x="32" y="245" width="16" height="12" rx="2" fill="none" stroke="#DDD6FE" stroke-width="1.5"/>
  <line x1="35" y1="250" x2="42" y2="250" stroke="#DDD6FE" stroke-width="1.5"/>
  <line x1="35" y1="253" x2="45" y2="253" stroke="#DDD6FE" stroke-width="1.5"/>
  <text x="60" y="256" fill="#DDD6FE" font-family="system-ui, sans-serif" font-size="13">Progress</text>

  <!-- Settings -->
  <circle cx="40" cy="286" r="7" fill="none" stroke="#DDD6FE" stroke-width="1.5"/>
  <circle cx="40" cy="286" r="3" fill="none" stroke="#DDD6FE" stroke-width="1.5"/>
  <text x="60" y="291" fill="#DDD6FE" font-family="system-ui, sans-serif" font-size="13">Settings</text>

  <!-- Top Header Bar -->
  <rect x="212" y="8" width="736" height="56" rx="16" fill="#fff" filter="url(#shadow1)"/>
  <text x="232" y="42" fill="#4C1D95" font-family="system-ui, sans-serif" font-size="20" font-weight="700">Welcome back, Sarah!</text>
  <text x="232" y="28" fill="#8B5CF6" font-family="system-ui, sans-serif" font-size="11">Sunday morning</text>

  <!-- Avatar -->
  <circle cx="912" cy="36" r="20" fill="#F59E0B"/>
  <circle cx="912" cy="30" r="7" fill="#fff"/>
  <path d="M900,46 Q912,38 924,46" fill="#fff"/>
  <circle cx="912" cy="36" r="20" fill="none" stroke="#FDE68A" stroke-width="2"/>

  <!-- Notification bell -->
  <circle cx="866" cy="36" r="16" fill="#F5F3FF"/>
  <path d="M862,38 L866,32 L870,38" fill="none" stroke="#8B5CF6" stroke-width="1.5" stroke-linecap="round" stroke-linejoin="round"/>
  <line x1="860" y1="38" x2="872" y2="38" stroke="#8B5CF6" stroke-width="1.5" stroke-linecap="round"/>
  <circle cx="870" cy="32" r="3" fill="#EC4899"/>

  <!-- Stat Cards Row -->
  <!-- Card 1: Stories Created -->
  <rect x="220" y="78" width="170" height="100" rx="16" fill="url(#card1)" filter="url(#shadow2)"/>
  <circle cx="248" cy="104" r="16" fill="rgba(255,255,255,0.25)"/>
  <rect x="241" y="98" width="10" height="12" rx="2" fill="none" stroke="#fff" stroke-width="1.5"/>
  <line x1="244" y1="102" x2="249" y2="102" stroke="#fff" stroke-width="1"/>
  <line x1="244" y1="105" x2="248" y2="105" stroke="#fff" stroke-width="1"/>
  <text x="236" y="148" fill="#fff" font-family="system-ui, sans-serif" font-size="28" font-weight="800">12</text>
  <text x="236" y="164" fill="rgba(255,255,255,0.85)" font-family="system-ui, sans-serif" font-size="11" font-weight="500">Stories Created</text>

  <!-- Card 2: Characters Made -->
  <rect x="400" y="78" width="170" height="100" rx="16" fill="url(#card2)" filter="url(#shadow2)"/>
  <circle cx="428" cy="104" r="16" fill="rgba(255,255,255,0.25)"/>
  <circle cx="428" cy="100" r="5" fill="none" stroke="#fff" stroke-width="1.5"/>
  <path d="M420,112 Q428,106 436,112" fill="none" stroke="#fff" stroke-width="1.5"/>
  <text x="416" y="148" fill="#fff" font-family="system-ui, sans-serif" font-size="28" font-weight="800">8</text>
  <text x="416" y="164" fill="rgba(255,255,255,0.85)" font-family="system-ui, sans-serif" font-size="11" font-weight="500">Characters Made</text>

  <!-- Card 3: Words Written -->
  <rect x="580" y="78" width="170" height="100" rx="16" fill="url(#card3)" filter="url(#shadow2)"/>
  <circle cx="608" cy="104" r="16" fill="rgba(255,255,255,0.25)"/>
  <text x="608" y="108" text-anchor="middle" fill="#fff" font-family="system-ui, sans-serif" font-size="11" font-weight="700">Aa</text>
  <text x="596" y="148" fill="#fff" font-family="system-ui, sans-serif" font-size="28" font-weight="800">2,450</text>
  <text x="596" y="164" fill="rgba(255,255,255,0.85)" font-family="system-ui, sans-serif" font-size="11" font-weight="500">Words Written</text>

  <!-- Card 4: Reading Time -->
  <rect x="760" y="78" width="170" height="100" rx="16" fill="url(#card4)" filter="url(#shadow2)"/>
  <circle cx="788" cy="104" r="16" fill="rgba(255,255,255,0.25)"/>
  <circle cx="788" cy="104" r="7" fill="none" stroke="#fff" stroke-width="1.5"/>
  <line x1="788" y1="104" x2="788" y2="99" stroke="#fff" stroke-width="1.5" stroke-linecap="round"/>
  <line x1="788" y1="104" x2="792" y2="106" stroke="#fff" stroke-width="1.5" stroke-linecap="round"/>
  <text x="776" y="148" fill="#fff" font-family="system-ui, sans-serif" font-size="28" font-weight="800">5.2</text>
  <text x="820" y="148" fill="rgba(255,255,255,0.85)" font-family="system-ui, sans-serif" font-size="14" font-weight="500">hrs</text>
  <text x="776" y="164" fill="rgba(255,255,255,0.85)" font-family="system-ui, sans-serif" font-size="11" font-weight="500">Reading Time</text>

  <!-- Continue Reading Section -->
  <text x="232" y="210" fill="#4C1D95" font-family="system-ui, sans-serif" font-size="18" font-weight="700">Continue Reading</text>
  <text x="880" y="210" fill="#8B5CF6" font-family="system-ui, sans-serif" font-size="12" font-weight="600" text-anchor="end">View All</text>

  <!-- Book Card 1: The Magic Forest -->
  <rect x="220" y="224" width="226" height="350" rx="20" fill="#fff" filter="url(#shadow2)"/>
  <rect x="232" y="236" width="202" height="200" rx="14" fill="url(#book1bg)"/>
  <!-- Forest illustration -->
  <circle cx="290" cy="340" r="30" fill="#059669" opacity="0.6"/>
  <circle cx="330" cy="330" r="36" fill="#047857" opacity="0.5"/>
  <circle cx="370" cy="340" r="28" fill="#059669" opacity="0.6"/>
  <rect x="286" y="340" width="8" height="30" rx="2" fill="#92400E" opacity="0.5"/>
  <rect x="326" y="330" width="8" height="40" rx="2" fill="#92400E" opacity="0.5"/>
  <rect x="366" y="340" width="8" height="25" rx="2" fill="#92400E" opacity="0.5"/>
  <!-- Stars -->
  <circle cx="300" cy="270" r="3" fill="#FDE68A"/>
  <circle cx="360" cy="260" r="2" fill="#FDE68A"/>
  <circle cx="340" cy="280" r="2.5" fill="#FDE68A"/>
  <text x="333" y="310" text-anchor="middle" fill="#fff" font-family="system-ui, sans-serif" font-size="16" font-weight="700" opacity="0.9">The Magic</text>
  <text x="333" y="328" text-anchor="middle" fill="#fff" font-family="system-ui, sans-serif" font-size="16" font-weight="700" opacity="0.9">Forest</text>

  <text x="244" y="460" fill="#1F2937" font-family="system-ui, sans-serif" font-size="15" font-weight="700">The Magic Forest</text>
  <text x="244" y="478" fill="#9CA3AF" font-family="system-ui, sans-serif" font-size="11">12 pages  |  Fantasy</text>
  <!-- Progress bar -->
  <rect x="244" y="492" width="190" height="8" rx="4" fill="#E5E7EB"/>
  <rect x="244" y="492" width="142" height="8" rx="4" fill="#8B5CF6"/>
  <text x="244" y="514" fill="#8B5CF6" font-family="system-ui, sans-serif" font-size="11" font-weight="600">75% complete</text>

  <!-- Book Card 2: Space Adventures -->
  <rect x="460" y="224" width="226" height="350" rx="20" fill="#fff" filter="url(#shadow2)"/>
  <rect x="472" y="236" width="202" height="200" rx="14" fill="url(#book2bg)"/>
  <!-- Space illustration -->
  <circle cx="573" cy="320" r="24" fill="#1E40AF" opacity="0.5"/>
  <circle cx="573" cy="320" r="16" fill="#3B82F6" opacity="0.4"/>
  <circle cx="530" cy="290" r="4" fill="#FDE68A"/>
  <circle cx="550" cy="360" r="3" fill="#FDE68A"/>
  <circle cx="600" cy="280" r="2.5" fill="#FDE68A"/>
  <circle cx="510" cy="340" r="2" fill="#FDE68A"/>
  <circle cx="620" cy="310" r="3" fill="#FDE68A"/>
  <circle cx="490" cy="300" r="1.5" fill="#FDE68A"/>
  <!-- Rocket -->
  <path d="M555,290 L560,270 L565,290 Z" fill="#F59E0B" opacity="0.8"/>
  <rect x="557" y="290" width="6" height="10" rx="2" fill="#EF4444" opacity="0.7"/>
  <text x="573" y="310" text-anchor="middle" fill="#fff" font-family="system-ui, sans-serif" font-size="16" font-weight="700" opacity="0.9">Space</text>
  <text x="573" y="328" text-anchor="middle" fill="#fff" font-family="system-ui, sans-serif" font-size="16" font-weight="700" opacity="0.9">Adventures</text>

  <text x="484" y="460" fill="#1F2937" font-family="system-ui, sans-serif" font-size="15" font-weight="700">Space Adventures</text>
  <text x="484" y="478" fill="#9CA3AF" font-family="system-ui, sans-serif" font-size="11">8 pages  |  Sci-Fi</text>
  <!-- Progress bar -->
  <rect x="484" y="492" width="190" height="8" rx="4" fill="#E5E7EB"/>
  <rect x="484" y="492" width="76" height="8" rx="4" fill="#F59E0B"/>
  <text x="484" y="514" fill="#F59E0B" font-family="system-ui, sans-serif" font-size="11" font-weight="600">40% complete</text>

  <!-- Book Card 3: Ocean Friends -->
  <rect x="700" y="224" width="226" height="350" rx="20" fill="#fff" filter="url(#shadow2)"/>
  <rect x="712" y="236" width="202" height="200" rx="14" fill="url(#book3bg)"/>
  <!-- Ocean illustration -->
  <path d="M720,340 Q760,320 800,340 Q840,360 880,340 L900,340 L900,420 L720,420 Z" fill="#3B82F6" opacity="0.25"/>
  <path d="M720,360 Q760,340 800,360 Q840,380 880,360 L900,360 L900,420 L720,420 Z" fill="#3B82F6" opacity="0.2"/>
  <!-- Fish -->
  <ellipse cx="780" cy="330" rx="14" ry="8" fill="#F59E0B" opacity="0.7"/>
  <polygon points="795,330 805,322 805,338" fill="#F59E0B" opacity="0.7"/>
  <circle cx="775" cy="328" r="2" fill="#fff"/>
  <!-- Bubbles -->
  <circle cx="800" cy="290" r="4" fill="rgba(255,255,255,0.5)"/>
  <circle cx="810" cy="280" r="3" fill="rgba(255,255,255,0.4)"/>
  <circle cx="795" cy="275" r="2" fill="rgba(255,255,255,0.3)"/>
  <text x="813" y="310" text-anchor="middle" fill="#fff" font-family="system-ui, sans-serif" font-size="16" font-weight="700" opacity="0.9">Ocean</text>
  <text x="813" y="328" text-anchor="middle" fill="#fff" font-family="system-ui, sans-serif" font-size="16" font-weight="700" opacity="0.9">Friends</text>

  <text x="724" y="460" fill="#1F2937" font-family="system-ui, sans-serif" font-size="15" font-weight="700">Ocean Friends</text>
  <text x="724" y="478" fill="#9CA3AF" font-family="system-ui, sans-serif" font-size="11">10 pages  |  Adventure</text>
  <!-- Progress bar -->
  <rect x="724" y="492" width="190" height="8" rx="4" fill="#E5E7EB"/>
  <rect x="724" y="492" width="171" height="8" rx="4" fill="#EC4899"/>
  <text x="724" y="514" fill="#EC4899" font-family="system-ui, sans-serif" font-size="11" font-weight="600">90% complete</text>
</svg>