<svg xmlns="http://www.w3.org/2000/svg" width="960" height="600" viewBox="0 0 960 600">
  <defs>
    <clipPath id="roundClip2"><rect width="960" height="600" rx="8"/></clipPath>
    <style>
      text { font-family: 'Segoe UI', system-ui, -apple-system, sans-serif; }
    </style>
  </defs>
  <g clip-path="url(#roundClip2)">
    <!-- Background -->
    <rect width="960" height="600" fill="#1E293B"/>

    <!-- Sidebar -->
    <rect width="220" height="600" fill="#0F172A"/>
    <rect x="20" y="18" width="36" height="36" rx="8" fill="#3B82F6"/>
    <text x="38" y="42" fill="#fff" font-size="16" font-weight="700" text-anchor="middle">M</text>
    <text x="68" y="42" fill="#F1F5F9" font-size="17" font-weight="700">MonetX</text>
    <line x1="16" y1="68" x2="204" y2="68" stroke="#334155" stroke-width="1"/>

    <!-- Nav Items -->
    <g opacity="0.55">
      <text x="56" y="107" fill="#94A3B8" font-size="13.5" font-weight="500">Dashboard</text>
      <rect x="28" y="93" width="18" height="18" rx="4" fill="none" stroke="#94A3B8" stroke-width="1.5"/>
    </g>
    <g opacity="0.55">
      <text x="56" y="151" fill="#94A3B8" font-size="13.5" font-weight="500">Endpoints</text>
      <rect x="28" y="137" width="18" height="18" rx="4" fill="none" stroke="#94A3B8" stroke-width="1.5"/>
    </g>
    <g opacity="0.55">
      <text x="56" y="195" fill="#94A3B8" font-size="13.5" font-weight="500">Patches</text>
      <rect x="28" y="181" width="18" height="18" rx="4" fill="none" stroke="#94A3B8" stroke-width="1.5"/>
    </g>
    <!-- Deployments (active) -->
    <g>
      <rect x="12" y="214" width="196" height="40" rx="6" fill="#1E293B"/>
      <rect x="8" y="218" width="3" height="32" rx="1.5" fill="#3B82F6"/>
      <rect x="28" y="225" width="18" height="18" rx="4" fill="none" stroke="#3B82F6" stroke-width="1.5"/>
      <path d="M32 230 l4 4 l6 -7" fill="none" stroke="#3B82F6" stroke-width="1.5" stroke-linecap="round" stroke-linejoin="round"/>
      <text x="56" y="239" fill="#3B82F6" font-size="13.5" font-weight="600">Deployments</text>
    </g>
    <g opacity="0.55">
      <text x="56" y="283" fill="#94A3B8" font-size="13.5" font-weight="500">Reports</text>
      <rect x="28" y="269" width="18" height="18" rx="4" fill="none" stroke="#94A3B8" stroke-width="1.5"/>
    </g>
    <g opacity="0.55">
      <text x="56" y="327" fill="#94A3B8" font-size="13.5" font-weight="500">Settings</text>
      <rect x="28" y="313" width="18" height="18" rx="4" fill="none" stroke="#94A3B8" stroke-width="1.5"/>
    </g>

    <!-- User -->
    <g transform="translate(20, 552)">
      <circle cx="16" cy="16" r="16" fill="#334155"/>
      <text x="16" y="21" fill="#CBD5E1" font-size="12" font-weight="600" text-anchor="middle">JD</text>
      <text x="42" y="14" fill="#E2E8F0" font-size="12" font-weight="500">John Doe</text>
      <text x="42" y="28" fill="#64748B" font-size="10">Administrator</text>
    </g>

    <!-- Main Content -->
    <text x="248" y="46" fill="#F1F5F9" font-size="22" font-weight="700">Deployments</text>
    <text x="248" y="64" fill="#64748B" font-size="12">Track and manage patch deployment progress</text>

    <!-- New Deployment button -->
    <rect x="822" y="24" width="110" height="36" rx="8" fill="#3B82F6"/>
    <text x="877" y="47" fill="#fff" font-size="12" font-weight="600" text-anchor="middle">+ New Deploy</text>

    <!-- Active Deployments Section -->
    <text x="248" y="100" fill="#E2E8F0" font-size="15" font-weight="600">Active Deployments</text>
    <rect x="340" y="88" width="20" height="18" rx="9" fill="#3B82F6"/>
    <text x="350" y="101" fill="#fff" font-size="10" font-weight="700" text-anchor="middle">3</text>

    <!-- Deployment Card 1 -->
    <rect x="248" y="114" width="684" height="80" rx="10" fill="#0F172A" stroke="#334155" stroke-width="1"/>
    <circle cx="272" cy="138" r="8" fill="#3B82F6" opacity="0.15"/>
    <circle cx="272" cy="138" r="4" fill="#3B82F6"/>
    <text x="290" y="140" fill="#E2E8F0" font-size="14" font-weight="600">KB5034441 - Security Update</text>
    <text x="290" y="157" fill="#64748B" font-size="11">78 of 120 endpoints  |  Started 45 min ago</text>
    <rect x="700" y="128" width="60" height="20" rx="10" fill="#172554"/>
    <text x="730" y="142" fill="#60A5FA" font-size="10" font-weight="600" text-anchor="middle">Running</text>
    <!-- Progress bar -->
    <rect x="290" y="170" width="540" height="8" rx="4" fill="#1E293B"/>
    <rect x="290" y="170" width="351" height="8" rx="4" fill="#3B82F6"/>
    <text x="840" y="178" fill="#94A3B8" font-size="11" font-weight="600">65%</text>

    <!-- Deployment Card 2 -->
    <rect x="248" y="202" width="684" height="80" rx="10" fill="#0F172A" stroke="#334155" stroke-width="1"/>
    <circle cx="272" cy="226" r="8" fill="#F59E0B" opacity="0.15"/>
    <circle cx="272" cy="226" r="4" fill="#F59E0B"/>
    <text x="290" y="228" fill="#E2E8F0" font-size="14" font-weight="600">CrowdStrike Sensor v7.10</text>
    <text x="290" y="245" fill="#64748B" font-size="11">195 of 245 endpoints  |  Started 2 hrs ago</text>
    <rect x="700" y="216" width="60" height="20" rx="10" fill="#172554"/>
    <text x="730" y="230" fill="#60A5FA" font-size="10" font-weight="600" text-anchor="middle">Running</text>
    <rect x="290" y="258" width="540" height="8" rx="4" fill="#1E293B"/>
    <rect x="290" y="258" width="430" height="8" rx="4" fill="#F59E0B"/>
    <text x="840" y="266" fill="#94A3B8" font-size="11" font-weight="600">80%</text>

    <!-- Deployment Card 3 -->
    <rect x="248" y="290" width="684" height="80" rx="10" fill="#0F172A" stroke="#334155" stroke-width="1"/>
    <circle cx="272" cy="314" r="8" fill="#22C55E" opacity="0.15"/>
    <circle cx="272" cy="314" r="4" fill="#22C55E"/>
    <text x="290" y="316" fill="#E2E8F0" font-size="14" font-weight="600">OpenSSL 3.2.1 Patch</text>
    <text x="290" y="333" fill="#64748B" font-size="11">30 of 32 endpoints  |  Started 15 min ago</text>
    <rect x="700" y="304" width="60" height="20" rx="10" fill="#172554"/>
    <text x="730" y="318" fill="#60A5FA" font-size="10" font-weight="600" text-anchor="middle">Running</text>
    <rect x="290" y="346" width="540" height="8" rx="4" fill="#1E293B"/>
    <rect x="290" y="346" width="507" height="8" rx="4" fill="#22C55E"/>
    <text x="840" y="354" fill="#94A3B8" font-size="11" font-weight="600">94%</text>

    <!-- Deployment History -->
    <text x="248" y="404" fill="#E2E8F0" font-size="15" font-weight="600">Deployment History</text>

    <!-- History Table -->
    <rect x="248" y="418" width="684" height="172" rx="10" fill="#0F172A" stroke="#334155" stroke-width="1"/>
    <!-- Header -->
    <text x="274" y="444" fill="#64748B" font-size="11" font-weight="600">DEPLOYMENT</text>
    <text x="510" y="444" fill="#64748B" font-size="11" font-weight="600">DATE</text>
    <text x="640" y="444" fill="#64748B" font-size="11" font-weight="600">ENDPOINTS</text>
    <text x="770" y="444" fill="#64748B" font-size="11" font-weight="600">STATUS</text>
    <text x="870" y="444" fill="#64748B" font-size="11" font-weight="600">RESULT</text>
    <line x1="260" y1="454" x2="920" y2="454" stroke="#1E293B" stroke-width="1"/>

    <!-- History Row 1 -->
    <text x="274" y="478" fill="#CBD5E1" font-size="12" font-weight="500">Windows Defender Update</text>
    <text x="510" y="478" fill="#94A3B8" font-size="12">Apr 10, 2026</text>
    <text x="640" y="478" fill="#94A3B8" font-size="12">245 / 245</text>
    <rect x="770" y="466" width="68" height="20" rx="10" fill="#052E16"/>
    <text x="804" y="480" fill="#22C55E" font-size="10" font-weight="600" text-anchor="middle">Completed</text>
    <text x="870" y="478" fill="#22C55E" font-size="12">100%</text>
    <line x1="268" y1="492" x2="920" y2="492" stroke="#1E293B" stroke-width="1"/>

    <!-- History Row 2 -->
    <text x="274" y="514" fill="#CBD5E1" font-size="12" font-weight="500">KB5033375 - .NET Framework</text>
    <text x="510" y="514" fill="#94A3B8" font-size="12">Apr 8, 2026</text>
    <text x="640" y="514" fill="#94A3B8" font-size="12">118 / 120</text>
    <rect x="770" y="502" width="68" height="20" rx="10" fill="#052E16"/>
    <text x="804" y="516" fill="#22C55E" font-size="10" font-weight="600" text-anchor="middle">Completed</text>
    <text x="870" y="514" fill="#F59E0B" font-size="12">98.3%</text>
    <line x1="268" y1="528" x2="920" y2="528" stroke="#1E293B" stroke-width="1"/>

    <!-- History Row 3 -->
    <text x="274" y="550" fill="#CBD5E1" font-size="12" font-weight="500">Apache Log4j Hotfix</text>
    <text x="510" y="550" fill="#94A3B8" font-size="12">Apr 5, 2026</text>
    <text x="640" y="550" fill="#94A3B8" font-size="12">32 / 32</text>
    <rect x="770" y="538" width="68" height="20" rx="10" fill="#052E16"/>
    <text x="804" y="552" fill="#22C55E" font-size="10" font-weight="600" text-anchor="middle">Completed</text>
    <text x="870" y="550" fill="#22C55E" font-size="12">100%</text>
  </g>
</svg>